<svg width="73" height="73" viewBox="0 0 73 73" fill="none" xmlns="http://www.w3.org/2000/svg">
<g clip-path="url(#clip0_294_145)">
<g filter="url(#filter0_d_294_145)">
<path d="M17.9189 34.5267L12.7519 19.6416C12.5333 18.7698 11.9935 18.0128 11.2406 17.5221C10.4876 17.0314 9.57706 16.8432 8.69127 16.9953C8.23704 17.0922 7.8072 17.2802 7.42783 17.5482C7.04845 17.8161 6.72745 18.1583 6.48427 18.554C6.2411 18.9497 6.08082 19.3906 6.01316 19.8501C5.94549 20.3096 5.97186 20.778 6.09065 21.227L11.406 37.6406L17.9189 34.5267Z" fill="#FFAC96"/>
<path d="M55.0801 34.5267L60.2471 19.6416C60.4657 18.7698 61.0055 18.0128 61.7584 17.5221C62.5114 17.0314 63.422 16.8432 64.3077 16.9953C64.762 17.0922 65.1918 17.2802 65.5712 17.5482C65.9505 17.8161 66.2716 18.1583 66.5147 18.554C66.7579 18.9497 66.9182 19.3906 66.9858 19.8501C67.0535 20.3096 67.0271 20.778 66.9084 21.227L61.593 37.6406L55.0801 34.5267Z" fill="#FFAC96"/>
<path d="M28.5678 40.6998L18.4847 34.7891C17.7869 34.3861 16.9692 34.2428 16.176 34.3845C15.3828 34.5263 14.6653 34.9439 14.1503 35.5636L10.4706 24.2041C10.2521 23.3323 9.71228 22.5753 8.95931 22.0846C8.20635 21.5939 7.2958 21.4057 6.41002 21.5578C5.95578 21.6547 5.52595 21.8427 5.14658 22.1107C4.7672 22.3786 4.4462 22.7208 4.20302 23.1165C3.95985 23.5122 3.79957 23.9531 3.73191 24.4126C3.66424 24.8721 3.69061 25.3405 3.8094 25.7895L8.77111 44.3019C8.99871 45.1677 9.47922 45.9461 10.1513 46.5375L17.8619 53.3927C18.343 53.821 18.7279 54.3464 18.9913 54.9342C19.2548 55.522 19.3908 56.159 19.3903 56.8031V60.4531H33.0778V48.5724C33.0779 46.9808 32.6618 45.4169 31.8706 44.0358C31.0794 42.6548 29.9408 41.5047 28.5678 40.6998Z" fill="#FFBCAB"/>
<path d="M66.5897 21.5578C65.7039 21.4057 64.7934 21.5939 64.0404 22.0846C63.2874 22.5753 62.7476 23.3323 62.5291 24.2041L58.8448 35.5636C58.3298 34.9439 57.6123 34.5263 56.8191 34.3845C56.026 34.2428 55.2082 34.3861 54.5105 34.7891L44.4273 40.6998C43.0552 41.5053 41.9175 42.6556 41.1271 44.0366C40.3368 45.4176 39.9213 46.9812 39.9219 48.5724V60.4531H53.6094V56.8031C53.609 56.159 53.7449 55.522 54.0084 54.9342C54.2718 54.3464 54.6567 53.821 55.1378 53.3927L62.8484 46.5375C63.5205 45.9461 64.001 45.1677 64.2286 44.3019L69.1903 25.7895C69.3091 25.3405 69.3355 24.8721 69.2678 24.4126C69.2001 23.9531 69.0399 23.5122 68.7967 23.1165C68.5535 22.7208 68.2325 22.3786 67.8531 22.1107C67.4738 21.8427 67.0439 21.6547 66.5897 21.5578Z" fill="#FFBCAB"/>
<path d="M38.7812 60.4531V69.5781H54.75V60.4531H53.6094H39.9219H38.7812Z" fill="#68B5E6"/>
<path d="M34.2188 60.4531H33.0781H19.3906H18.25V69.5781H34.2188V60.4531Z" fill="#68B5E6"/>
<path d="M51.8298 21.17L51.02 21.9799L36.4998 36.5L21.9796 21.9799L21.1698 21.17C20.1833 20.2242 19.3957 19.091 18.853 17.8367C18.3103 16.5825 18.0234 15.2325 18.0093 13.866C17.9952 12.4995 18.2541 11.1439 18.7708 9.87871C19.2875 8.61354 20.0517 7.46429 21.0184 6.49833C21.9851 5.53237 23.135 4.76915 24.4005 4.25344C25.6661 3.73773 27.0219 3.4799 28.3884 3.49508C29.7549 3.51026 31.1047 3.79813 32.3585 4.34182C33.6123 4.88551 34.7449 5.67407 35.6899 6.66127L36.4998 7.47111L37.3096 6.66127C38.2547 5.67407 39.3873 4.88551 40.6411 4.34182C41.8949 3.79813 43.2446 3.51026 44.6112 3.49508C45.9777 3.4799 47.3335 3.73773 48.5991 4.25344C49.8646 4.76915 51.0145 5.53237 51.9812 6.49833C52.9479 7.46429 53.712 8.61354 54.2287 9.87871C54.7455 11.1439 55.0043 12.4995 54.9902 13.866C54.9761 15.2325 54.6893 16.5825 54.1466 17.8367C53.6039 19.091 52.8162 20.2242 51.8298 21.17Z" fill="white"/>
<path d="M51.83 6.66127C50.7448 5.56453 49.4239 4.72957 47.9677 4.21985C46.5114 3.71012 44.9581 3.53904 43.4259 3.71959C45.3469 3.9325 47.1687 4.68375 48.6814 5.88682C50.1942 7.08989 51.3362 8.69583 51.9761 10.5196C52.616 12.3434 52.7276 14.3109 52.2982 16.1954C51.8687 18.0799 50.9157 19.8047 49.5487 21.1712L48.7389 21.981L35.3594 35.3594L36.5 36.5L51.0202 21.9799L51.83 21.17C53.7524 19.2452 54.8322 16.636 54.8322 13.9156C54.8322 11.1952 53.7524 8.58608 51.83 6.66127Z" fill="#F0F0F0"/>
<path d="M38.7813 25.0937V20.5312H43.3438V15.9687H38.7813V11.4062H34.2188V15.9687H29.6562V20.5312H34.2188V25.0937H38.7813Z" fill="#FC4F6E"/>
<path d="M57.9366 38.4391L50.3127 42.6594C50.0948 42.7856 49.9332 42.9901 49.861 43.2313C49.7887 43.4725 49.8111 43.7322 49.9237 43.9574C49.9839 44.0779 50.0681 44.1847 50.1712 44.2714C50.2742 44.3581 50.3939 44.4227 50.5229 44.4614C50.6518 44.5001 50.7874 44.512 50.9211 44.4963C51.0548 44.4806 51.1839 44.4378 51.3005 44.3703L57.9366 40.7203C58.6295 40.3187 59.1595 39.6867 59.4344 38.9346C59.7093 38.1824 59.7117 37.3576 59.4411 36.6038C59.1772 37.3769 58.6429 38.0287 57.9366 38.4391Z" fill="#FFAC96"/>
<path d="M15.0631 38.4391L22.6871 42.6594C22.905 42.7856 23.0665 42.9901 23.1388 43.2313C23.2111 43.4725 23.1886 43.7322 23.076 43.9574C23.0158 44.0779 22.9316 44.1847 22.8286 44.2714C22.7255 44.3581 22.6059 44.4227 22.4769 44.4614C22.3479 44.5001 22.2124 44.512 22.0787 44.4963C21.9449 44.4806 21.8158 44.4378 21.6993 44.3703L15.0631 40.7203C14.3703 40.3187 13.8403 39.6867 13.5653 38.9346C13.2904 38.1824 13.2881 37.3576 13.5586 36.6038C13.8225 37.3769 14.3568 38.0287 15.0631 38.4391Z" fill="#FFAC96"/>
</g>
</g>
<defs>
<filter id="filter0_d_294_145" x="-8.30469" y="-8.50555" width="89.6094" height="90.0837" filterUnits="userSpaceOnUse" color-interpolation-filters="sRGB">
<feFlood flood-opacity="0" result="BackgroundImageFix"/>
<feColorMatrix in="SourceAlpha" type="matrix" values="0 0 0 0 0 0 0 0 0 0 0 0 0 0 0 0 0 0 127 0" result="hardAlpha"/>
<feOffset/>
<feGaussianBlur stdDeviation="6"/>
<feComposite in2="hardAlpha" operator="out"/>
<feColorMatrix type="matrix" values="0 0 0 0 0 0 0 0 0 0 0 0 0 0 0 0 0 0 0.14 0"/>
<feBlend mode="normal" in2="BackgroundImageFix" result="effect1_dropShadow_294_145"/>
<feBlend mode="normal" in="SourceGraphic" in2="effect1_dropShadow_294_145" result="shape"/>
</filter>
<clipPath id="clip0_294_145">
<rect width="73" height="73" fill="white"/>
</clipPath>
</defs>
</svg>
